<svg width="91" height="35" viewBox="0 0 91 35" fill="none" xmlns="http://www.w3.org/2000/svg">
<g clip-path="url(#clip0_23_36)">
<path d="M10.3699 28.3954C8.28248 28.3954 6.4575 27.9453 4.89792 27.0422C3.33834 26.139 2.11572 24.8887 1.23006 23.2912C0.344411 21.6937 -0.0969238 19.8433 -0.0969238 17.7457C-0.0969238 15.6481 0.344411 13.7976 1.23006 12.2002C2.11572 10.6027 3.33834 9.3524 4.89792 8.44923C6.4575 7.54606 8.28248 7.09595 10.3699 7.09595C12.4573 7.09595 14.2554 7.549 15.8269 8.44923C17.3984 9.3524 18.6211 10.6027 19.4948 12.2002C20.3685 13.7976 20.8069 15.6481 20.8069 17.7457C20.8069 19.8433 20.3685 21.6937 19.4948 23.2912C18.6211 24.8887 17.3984 26.139 15.8269 27.0422C14.2554 27.9453 12.4364 28.3954 10.3699 28.3954ZM10.3699 25.0122C12.3589 25.0122 13.9423 24.365 15.1262 23.0706C16.31 21.7761 16.9005 20.0021 16.9005 17.7457C16.9005 15.4892 16.31 13.7153 15.1262 12.4208C13.9423 11.1264 12.3589 10.4792 10.3699 10.4792C8.38089 10.4792 6.79148 11.1264 5.59869 12.4208C4.40589 13.7153 3.80949 15.4892 3.80949 17.7457C3.80949 20.0021 4.40589 21.7761 5.59869 23.0706C6.79148 24.365 8.38089 25.0122 10.3699 25.0122Z" fill="white"/>
<path d="M22.7422 28.0424V13.4504H26.1118L26.41 15.9217C26.8663 15.0597 27.5283 14.3713 28.3931 13.8623C29.2578 13.3534 30.2777 13.0974 31.4496 13.0974C33.2776 13.0974 34.7 13.6652 35.7139 14.8037C36.7277 15.9422 37.2347 17.6074 37.2347 19.805V28.0424H33.4177V20.158C33.4177 18.9018 33.1583 17.9428 32.6424 17.2749C32.1265 16.6071 31.3214 16.2747 30.227 16.2747C29.1326 16.2747 28.2738 16.6483 27.5879 17.3926C26.9021 18.1399 26.5591 19.1784 26.5591 20.511V28.0424H22.7422Z" fill="white"/>
<path d="M43.3774 28.0424L37.9502 13.4504H41.9461L45.7034 24.4826L49.4607 13.4504H53.4566L47.9995 28.0424H43.3774Z" fill="white"/>
<path d="M61.0011 28.3954C59.5101 28.3954 58.1891 28.0806 57.0351 27.454C55.881 26.8273 54.9775 25.9448 54.3215 24.8062C53.6654 23.6677 53.3374 22.3556 53.3374 20.8641C53.3374 19.3725 53.6595 18.0104 54.3066 16.8336C54.9536 15.6569 55.8482 14.739 56.9903 14.083C58.1325 13.4269 59.4803 13.0974 61.031 13.0974C62.4832 13.0974 63.7654 13.4122 64.8777 14.0388C65.99 14.6655 66.8608 15.5245 67.487 16.613C68.1132 17.7015 68.4263 18.9136 68.4263 20.2463C68.4263 20.461 68.4203 20.6876 68.4114 20.9229C68.3995 21.1583 68.3875 21.4024 68.3667 21.6584H57.1245C57.2051 22.7969 57.6076 23.6883 58.3322 24.3355C59.0569 24.9828 59.9366 25.3064 60.9713 25.3064C61.7466 25.3064 62.3967 25.1357 62.9245 24.7915C63.4523 24.4473 63.843 24.0031 64.1024 23.453H67.979C67.7017 24.3738 67.2395 25.2122 66.5924 25.9683C65.9453 26.7244 65.1521 27.3157 64.2068 27.7482C63.2645 28.1806 62.1939 28.3954 61.0011 28.3954ZM61.031 16.157C60.0976 16.157 59.2716 16.4159 58.5559 16.9366C57.8402 17.4573 57.384 18.2458 57.1842 19.3049H64.5497C64.4901 18.3429 64.1322 17.578 63.4762 17.0102C62.8201 16.4424 62.0061 16.157 61.031 16.157Z" fill="white"/>
<path d="M80.9209 28.0424L75.4937 13.4504H79.4895L83.2468 24.4826L87.0041 13.4504H91L85.543 28.0424H80.9209Z" fill="white"/>
<path d="M74.2711 13.4504H70.4541V28.0424H74.2711V13.4504Z" fill="white"/>
</g>
<defs>
<clipPath id="clip0_23_36">
<rect width="91" height="35" fill="white"/>
</clipPath>
</defs>
</svg>
