<svg width="25" height="24" viewBox="0 0 25 24" fill="none" xmlns="http://www.w3.org/2000/svg">
<path d="M3.738 5.77881C5.33106 5.77881 6.62248 4.48518 6.62248 2.88941C6.62248 1.29363 5.33106 0 3.738 0C2.14494 0 0.853516 1.29363 0.853516 2.88941C0.853516 4.48518 2.14494 5.77881 3.738 5.77881Z" fill="white"/>
<path d="M9.34612 7.96829V23.9987H14.3149V16.0713C14.3149 13.9795 14.7077 11.9538 17.2969 11.9538C19.8505 11.9538 19.8821 14.3453 19.8821 16.2034V24H24.8535V15.209C24.8535 10.8907 23.9254 7.57212 18.8868 7.57212C16.4677 7.57212 14.8461 8.90193 14.183 10.1604H14.1158V7.96829H9.34612ZM1.249 7.96829H6.22565V23.9987H1.249V7.96829Z" fill="white"/>
</svg>
